<?xml version="1.0" encoding="iso-8859-1"?>
<!-- Generator: Adobe Illustrator 19.0.0, SVG Export Plug-In . SVG Version: 6.00 Build 0)  -->
<svg version="1.1" id="Layer_1" xmlns="http://www.w3.org/2000/svg" xmlns:xlink="http://www.w3.org/1999/xlink" x="0px" y="0px"
	 viewBox="0 0 512.001 512.001" style="enable-background:new 0 0 512.001 512.001;" xml:space="preserve">
<path style="fill:#EB86BF;" d="M512.001,256.006c0,141.395-114.606,255.998-255.996,255.994
	C114.606,512.004,0.001,397.402,0.001,256.006C-0.007,114.61,114.606,0,256.005,0C397.395,0,512.001,114.614,512.001,256.006z"/>
<path style="fill:#D670AD;" d="M498.97,336.633L255.64,93.301l-0.002-0.001l-1.667-1.667c-0.634-0.636-1.393-1.142-2.235-1.494
	c-0.837-0.35-1.743-0.539-2.669-0.539H96.534c-3.829,0-6.933,3.104-6.933,6.933v291.2c0,2.347,1.243,4.32,3.027,5.574
	c0.463,0.658,112.783,112.978,113.441,113.441c0.117,0.167,0.297,0.272,0.426,0.426c16.022,3.14,32.567,4.828,49.511,4.827
	C369.214,512.003,465.185,438.501,498.97,336.633z"/>
<g>
	<path style="fill:#F4F6F9;" d="M311.467,214.4h13.867v-48.533c0-0.926-0.189-1.831-0.539-2.67c-0.352-0.842-0.859-1.6-1.494-2.235
		l-69.329-69.329c-0.635-0.635-1.393-1.142-2.235-1.494c-0.838-0.35-1.744-0.539-2.67-0.539H96.534
		c-3.829,0-6.933,3.104-6.933,6.933v291.2c0,3.829,3.104,6.933,6.933,6.933h117.867V380.8H103.467V103.467h138.667v62.4
		c0,3.829,3.104,6.933,6.933,6.933h62.4V214.4z M256.001,113.27l45.663,45.663h-45.663V113.27z"/>
	<path style="fill:#F4F6F9;" d="M418.939,353.321l-11.04-6.388c0.298-2.607,0.45-5.197,0.45-7.732c0-2.518-0.156-5.108-0.461-7.739
		l11.026-6.385c3.308-1.916,4.438-6.148,2.532-9.459l-20.746-36.021c-0.921-1.598-2.441-2.766-4.225-3.239
		c-1.771-0.467-3.68-0.213-5.275,0.711l-10.925,6.365c-4.029-2.948-8.497-5.535-13.23-7.651v-12.848
		c0-3.829-3.104-6.933-6.933-6.933h-41.491c-3.829,0-6.933,3.104-6.933,6.933v12.837c-4.066,1.805-8.785,4.306-13.417,7.678
		l-11.087-6.399c-1.598-0.917-3.487-1.171-5.264-0.69c-1.777,0.478-3.291,1.642-4.208,3.233l-20.759,36.021
		c-1.909,3.311-0.779,7.542,2.526,9.459l10.992,6.382c-0.311,2.651-0.467,5.214-0.467,7.746c0,2.556,0.153,5.119,0.461,7.743
		l-11.009,6.382c-3.308,1.916-4.438,6.148-2.532,9.459l20.746,36.021c1.913,3.311,6.144,4.455,9.466,2.553l11.135-6.402
		c4.635,3.372,9.357,5.87,13.42,7.675v12.835c0,3.829,3.104,6.933,6.933,6.933h41.491c3.829,0,6.933-3.104,6.933-6.933v-12.845
		c4.733-2.119,9.205-4.702,13.233-7.651l10.989,6.371c1.588,0.921,3.481,1.174,5.271,0.698c1.78-0.478,3.297-1.642,4.214-3.239
		l20.719-36.021C423.382,359.466,422.247,355.236,418.939,353.321z M392.205,385.855l-9.042-5.244
		c-2.543-1.479-5.751-1.188-7.986,0.732c-4.902,4.198-10.945,7.701-17.478,10.132c-2.715,1.009-4.516,3.599-4.516,6.497v10.561
		h-27.625v-10.562c0-2.898-1.801-5.488-4.516-6.497c-6.645-2.475-12.915-6.07-17.655-10.129c-2.227-1.909-5.42-2.201-7.966-0.748
		l-9.188,5.284l-13.84-24.027l9.107-5.281c2.535-1.469,3.873-4.37,3.342-7.251c-0.65-3.548-0.969-6.859-0.969-10.123
		c0-3.21,0.322-6.521,0.981-10.129c0.525-2.875-0.813-5.776-3.342-7.242l-9.093-5.278l13.843-24.022l9.148,5.281
		c2.549,1.476,5.756,1.174,7.983-0.745c4.73-4.063,10.999-7.665,17.648-10.14c2.715-1.009,4.516-3.599,4.516-6.497v-10.562h27.625
		v10.562c0,2.898,1.801,5.488,4.516,6.497c6.538,2.434,12.58,5.938,17.472,10.14c2.238,1.926,5.46,2.214,8.006,0.727l8.989-5.237
		l13.815,23.989l-9.12,5.281c-2.532,1.469-3.873,4.37-3.342,7.251c0.64,3.487,0.965,6.893,0.965,10.123
		c0,3.28-0.322,6.683-0.951,10.123c-0.531,2.881,0.81,5.786,3.345,7.255l9.131,5.281L392.205,385.855z"/>
	<path style="fill:#F4F6F9;" d="M339.199,304.533c-19.077,0-34.595,15.553-34.595,34.667s15.519,34.667,34.595,34.667
		c19.076,0,34.595-15.553,34.595-34.667S358.276,304.533,339.199,304.533z M339.199,360c-11.429,0-20.729-9.33-20.729-20.8
		s9.3-20.8,20.729-20.8c11.428,0,20.729,9.33,20.729,20.8S350.629,360,339.199,360z"/>
</g>
<g>
</g>
<g>
</g>
<g>
</g>
<g>
</g>
<g>
</g>
<g>
</g>
<g>
</g>
<g>
</g>
<g>
</g>
<g>
</g>
<g>
</g>
<g>
</g>
<g>
</g>
<g>
</g>
<g>
</g>
</svg>
